<mxfile host="65bd71144e">
    <diagram id="bameyfpKyIcTp5K4QJI0" name="Page-1">
        <mxGraphModel dx="1698" dy="2114" grid="0" gridSize="10" guides="1" tooltips="1" connect="1" arrows="1" fold="1" page="1" pageScale="1" pageWidth="827" pageHeight="1169" background="#ffffff" math="0" shadow="0">
            <root>
                <mxCell id="0"/>
                <mxCell id="1" parent="0"/>
                <mxCell id="4" value="Ben : Student" style="swimlane;fontStyle=1;align=center;verticalAlign=top;childLayout=stackLayout;horizontal=1;startSize=26;horizontalStack=0;resizeParent=1;resizeParentMax=0;resizeLast=0;collapsible=1;marginBottom=0;rounded=1;fontColor=#ffffff;fillColor=#0050ef;strokeColor=#001DBC;" vertex="1" parent="1">
                    <mxGeometry x="-798.45" y="-1092" width="210" height="148" as="geometry"/>
                </mxCell>
                <mxCell id="5" value="first_name : Ben&#10;last_name : Buckle&#10;id : 2&#10;comments: NULL&#10;subject_id : 2&#10;learning_style_id : 2" style="text;strokeColor=none;fillColor=none;align=left;verticalAlign=top;spacingLeft=4;spacingRight=4;overflow=hidden;rotatable=0;points=[[0,0.5],[1,0.5]];portConstraint=eastwest;rounded=1;fontColor=#000000;" vertex="1" parent="4">
                    <mxGeometry y="26" width="210" height="114" as="geometry"/>
                </mxCell>
                <mxCell id="6" value="" style="line;strokeWidth=1;fillColor=none;align=left;verticalAlign=middle;spacingTop=-1;spacingLeft=3;spacingRight=3;rotatable=0;labelPosition=right;points=[];portConstraint=eastwest;strokeColor=inherit;rounded=1;fontColor=#000000;" vertex="1" parent="4">
                    <mxGeometry y="140" width="210" height="8" as="geometry"/>
                </mxCell>
                <mxCell id="7" value="&lt;p style=&quot;line-height: 160%; font-size: 17px;&quot;&gt;Love Learning - Tutor Company App&lt;/p&gt;" style="text;html=1;strokeColor=none;fillColor=none;align=center;verticalAlign=middle;whiteSpace=wrap;rounded=1;fontStyle=1;fontSize=17;fontColor=#000000;" vertex="1" parent="1">
                    <mxGeometry x="-567" y="-1169" width="307" height="77" as="geometry"/>
                </mxCell>
                <mxCell id="8" value="Object Diagram" style="text;html=1;strokeColor=none;fillColor=none;align=center;verticalAlign=middle;whiteSpace=wrap;rounded=1;fontSize=17;fontStyle=5;fontColor=#000000;" vertex="1" parent="1">
                    <mxGeometry x="-524" y="-1126" width="222" height="52" as="geometry"/>
                </mxCell>
                <mxCell id="9" value="Writing : Subject" style="swimlane;fontStyle=1;align=center;verticalAlign=top;childLayout=stackLayout;horizontal=1;startSize=26;horizontalStack=0;resizeParent=1;resizeParentMax=0;resizeLast=0;collapsible=1;marginBottom=0;rounded=1;fontColor=#ffffff;fillColor=#60a917;strokeColor=#2D7600;" vertex="1" parent="1">
                    <mxGeometry x="-615" y="-756" width="185" height="96" as="geometry"/>
                </mxCell>
                <mxCell id="10" value="subject_name : Writing&#10;id : 2&#10;learning_style_id : 2" style="text;strokeColor=none;fillColor=none;align=left;verticalAlign=top;spacingLeft=4;spacingRight=4;overflow=hidden;rotatable=0;points=[[0,0.5],[1,0.5]];portConstraint=eastwest;rounded=1;fontColor=#000000;" vertex="1" parent="9">
                    <mxGeometry y="26" width="185" height="62" as="geometry"/>
                </mxCell>
                <mxCell id="11" value="" style="line;strokeWidth=1;fillColor=none;align=left;verticalAlign=middle;spacingTop=-1;spacingLeft=3;spacingRight=3;rotatable=0;labelPosition=right;points=[];portConstraint=eastwest;strokeColor=inherit;rounded=1;fontColor=#000000;" vertex="1" parent="9">
                    <mxGeometry y="88" width="185" height="8" as="geometry"/>
                </mxCell>
                <mxCell id="12" value="Julia : Educator" style="swimlane;fontStyle=1;align=center;verticalAlign=top;childLayout=stackLayout;horizontal=1;startSize=26;horizontalStack=0;resizeParent=1;resizeParentMax=0;resizeLast=0;collapsible=1;marginBottom=0;rounded=1;fontColor=#000000;fillColor=#fa6800;strokeColor=#C73500;" vertex="1" parent="1">
                    <mxGeometry x="-225" y="-1089" width="166" height="115" as="geometry"/>
                </mxCell>
                <mxCell id="13" value="first_name : Julia&#10;last_name : Donaldson&#10;id : 2&#10;learning_style_id : 2&#10;subject_id : 2" style="text;strokeColor=none;fillColor=none;align=left;verticalAlign=top;spacingLeft=4;spacingRight=4;overflow=hidden;rotatable=0;points=[[0,0.5],[1,0.5]];portConstraint=eastwest;rounded=1;fontColor=#000000;" vertex="1" parent="12">
                    <mxGeometry y="26" width="166" height="81" as="geometry"/>
                </mxCell>
                <mxCell id="14" value="" style="line;strokeWidth=1;fillColor=none;align=left;verticalAlign=middle;spacingTop=-1;spacingLeft=3;spacingRight=3;rotatable=0;labelPosition=right;points=[];portConstraint=eastwest;strokeColor=inherit;rounded=1;fontColor=#000000;" vertex="1" parent="12">
                    <mxGeometry y="107" width="166" height="8" as="geometry"/>
                </mxCell>
                <mxCell id="15" value="1 : Lesson" style="swimlane;fontStyle=1;align=center;verticalAlign=top;childLayout=stackLayout;horizontal=1;startSize=26;horizontalStack=0;resizeParent=1;resizeParentMax=0;resizeLast=0;collapsible=1;marginBottom=0;rounded=1;fontColor=#ffffff;fillColor=#d80073;strokeColor=#A50040;" vertex="1" parent="1">
                    <mxGeometry x="-335" y="-806" width="226" height="153" as="geometry"/>
                </mxCell>
                <mxCell id="16" value="date : 25-05-2023&#10;time : 09:00&#10;id : 2&#10;subject_id : 2&#10;educator_id : 2&#10;learning_style_id : 2" style="text;strokeColor=none;fillColor=none;align=left;verticalAlign=top;spacingLeft=4;spacingRight=4;overflow=hidden;rotatable=0;points=[[0,0.5],[1,0.5]];portConstraint=eastwest;rounded=1;fontColor=#000000;" vertex="1" parent="15">
                    <mxGeometry y="26" width="226" height="119" as="geometry"/>
                </mxCell>
                <mxCell id="17" value="" style="line;strokeWidth=1;fillColor=none;align=left;verticalAlign=middle;spacingTop=-1;spacingLeft=3;spacingRight=3;rotatable=0;labelPosition=right;points=[];portConstraint=eastwest;strokeColor=inherit;rounded=1;fontColor=#000000;" vertex="1" parent="15">
                    <mxGeometry y="145" width="226" height="8" as="geometry"/>
                </mxCell>
                <mxCell id="18" style="html=1;fontSize=17;endArrow=ERmany;endFill=0;fontColor=#000000;strokeColor=#000000;" edge="1" parent="1" target="9">
                    <mxGeometry relative="1" as="geometry">
                        <mxPoint x="-510.83333333333326" y="-815.6666666666665" as="targetPoint"/>
                        <mxPoint x="-427" y="-912" as="sourcePoint"/>
                    </mxGeometry>
                </mxCell>
                <mxCell id="19" value="Online : Learning_Style" style="swimlane;fontStyle=1;align=center;verticalAlign=top;childLayout=stackLayout;horizontal=1;startSize=26;horizontalStack=0;resizeParent=1;resizeParentMax=0;resizeLast=0;collapsible=1;marginBottom=0;rounded=1;fillColor=#f0a30a;strokeColor=#BD7000;fontColor=#000000;" vertex="1" parent="1">
                    <mxGeometry x="-491" y="-995" width="166" height="82" as="geometry"/>
                </mxCell>
                <mxCell id="20" value="id : 2&#10;learning_style : Online" style="text;strokeColor=none;fillColor=none;align=left;verticalAlign=top;spacingLeft=4;spacingRight=4;overflow=hidden;rotatable=0;points=[[0,0.5],[1,0.5]];portConstraint=eastwest;rounded=1;fontColor=#000000;" vertex="1" parent="19">
                    <mxGeometry y="26" width="166" height="48" as="geometry"/>
                </mxCell>
                <mxCell id="21" value="" style="line;strokeWidth=1;fillColor=none;align=left;verticalAlign=middle;spacingTop=-1;spacingLeft=3;spacingRight=3;rotatable=0;labelPosition=right;points=[];portConstraint=eastwest;strokeColor=inherit;rounded=1;fontColor=#000000;" vertex="1" parent="19">
                    <mxGeometry y="74" width="166" height="8" as="geometry"/>
                </mxCell>
                <mxCell id="22" style="html=1;exitX=1.001;exitY=0.6;exitDx=0;exitDy=0;entryX=-0.026;entryY=0.839;entryDx=0;entryDy=0;fontSize=17;endArrow=ERmany;endFill=0;exitPerimeter=0;entryPerimeter=0;fontColor=#000000;strokeColor=#000000;" edge="1" parent="1" source="20" target="13">
                    <mxGeometry relative="1" as="geometry">
                        <mxPoint x="-225.664" y="-936.671" as="targetPoint"/>
                    </mxGeometry>
                </mxCell>
                <mxCell id="23" style="html=1;fontSize=17;endArrow=ERmany;endFill=0;exitX=-0.015;exitY=0.203;exitDx=0;exitDy=0;exitPerimeter=0;entryX=1.017;entryY=0.876;entryDx=0;entryDy=0;entryPerimeter=0;fontColor=#000000;strokeColor=#000000;" edge="1" parent="1" source="20" target="5">
                    <mxGeometry relative="1" as="geometry">
                        <mxPoint x="-588.4500000000002" y="-935.648" as="targetPoint"/>
                        <mxPoint x="-521" y="-982" as="sourcePoint"/>
                    </mxGeometry>
                </mxCell>
                <mxCell id="24" value="" style="endArrow=none;html=1;fontSize=17;entryX=0.25;entryY=1;entryDx=0;entryDy=0;exitX=0.982;exitY=0.063;exitDx=0;exitDy=0;exitPerimeter=0;fontColor=#000000;strokeColor=#000000;startArrow=none;startFill=0;endFill=0;" edge="1" parent="1" source="9" target="12">
                    <mxGeometry width="50" height="50" relative="1" as="geometry">
                        <mxPoint x="-471" y="-804" as="sourcePoint"/>
                        <mxPoint x="-223.00800000000004" y="-908.036" as="targetPoint"/>
                    </mxGeometry>
                </mxCell>
                <mxCell id="25" style="html=1;fontSize=17;endArrow=ERmany;endFill=0;entryX=0.698;entryY=-0.008;entryDx=0;entryDy=0;entryPerimeter=0;fontColor=#000000;strokeColor=#000000;exitX=0.622;exitY=0.73;exitDx=0;exitDy=0;exitPerimeter=0;" edge="1" parent="1" source="14" target="15">
                    <mxGeometry relative="1" as="geometry">
                        <mxPoint x="-179.16666666666652" y="-810.6666666666665" as="targetPoint"/>
                        <mxPoint x="-120" y="-970" as="sourcePoint"/>
                    </mxGeometry>
                </mxCell>
                <mxCell id="26" style="html=1;entryX=0.001;entryY=0.93;entryDx=0;entryDy=0;entryPerimeter=0;fontSize=17;startArrow=none;startFill=0;endArrow=ERmany;endFill=0;exitX=0.995;exitY=0.941;exitDx=0;exitDy=0;exitPerimeter=0;fontColor=#000000;strokeColor=#000000;" edge="1" parent="1" source="10" target="16">
                    <mxGeometry relative="1" as="geometry"/>
                </mxCell>
                <mxCell id="27" style="edgeStyle=none;html=1;endArrow=none;endFill=0;entryX=0.377;entryY=-0.002;entryDx=0;entryDy=0;entryPerimeter=0;strokeColor=#050505;startArrow=none;startFill=0;" edge="1" parent="1" target="9">
                    <mxGeometry relative="1" as="geometry">
                        <mxPoint x="-620" y="-940" as="sourcePoint"/>
                    </mxGeometry>
                </mxCell>
            </root>
        </mxGraphModel>
    </diagram>
</mxfile>